{
    "asset" : {
        "generator" : "Khronos glTF Blender I/O v3.3.32",
        "version" : "2.0"
    },
    "scene" : 0,
    "scenes" : [
        {
            "name" : "Scene",
            "nodes" : [
                0
            ]
        }
    ],
    "nodes" : [
        {
            "mesh" : 0,
            "name" : "Cone.001",
            "scale" : [
                0.25361356139183044,
                0.25361356139183044,
                0.25361356139183044
            ],
            "translation" : [
                0,
                0.899019718170166,
                -0.5114610195159912
            ]
        }
    ],
    "materials" : [
        {
            "doubleSided" : true,
            "name" : "Material.001",
            "pbrMetallicRoughness" : {
                "baseColorFactor" : [
                    0.800000011920929,
                    0.800000011920929,
                    0.800000011920929,
                    1
                ],
                "metallicFactor" : 0,
                "roughnessFactor" : 0.5
            }
        }
    ],
    "meshes" : [
        {
            "name" : "Cone.001",
            "primitives" : [
                {
                    "attributes" : {
                        "POSITION" : 0,
                        "NORMAL" : 1,
                        "TEXCOORD_0" : 2
                    },
                    "indices" : 3,
                    "material" : 0
                }
            ]
        }
    ],
    "accessors" : [
        {
            "bufferView" : 0,
            "componentType" : 5126,
            "count" : 1963,
            "max" : [
                3.943007230758667,
                1,
                5.959702491760254
            ],
            "min" : [
                -3.9430091381073,
                -7.487847328186035,
                -1.9263160228729248
            ],
            "type" : "VEC3"
        },
        {
            "bufferView" : 1,
            "componentType" : 5126,
            "count" : 1963,
            "type" : "VEC3"
        },
        {
            "bufferView" : 2,
            "componentType" : 5126,
            "count" : 1963,
            "type" : "VEC2"
        },
        {
            "bufferView" : 3,
            "componentType" : 5123,
            "count" : 10092,
            "type" : "SCALAR"
        }
    ],
    "bufferViews" : [
        {
            "buffer" : 0,
            "byteLength" : 23556,
            "byteOffset" : 0,
            "target" : 34962
        },
        {
            "buffer" : 0,
            "byteLength" : 23556,
            "byteOffset" : 23556,
            "target" : 34962
        },
        {
            "buffer" : 0,
            "byteLength" : 15704,
            "byteOffset" : 47112,
            "target" : 34962
        },
        {
            "buffer" : 0,
            "byteLength" : 20184,
            "byteOffset" : 62816,
            "target" : 34963
        }
    ],
    "buffers" : [
        {
            "byteLength" : 83000,
            "uri" : "data:application/octet-stream;base64,"
        }
    ]
}
